<svg width="1047" height="642" viewBox="0 0 1047 642" fill="none" xmlns="http://www.w3.org/2000/svg">
<g filter="url(#filter0_d_224_43)">
<rect x="1" y="1" width="1035" height="630" rx="50" fill="#F2F2F2"/>
</g>
<path d="M162.04 316V219.952H192.712V252.64H202.648V219.952H233.464V316H202.648V280.432H192.712V316H162.04ZM176.44 304.48H180.184V268.048H215.32V304.48H219.064V231.472H215.32V264.592H180.184V231.472H176.44V304.48ZM235.682 316L267.507 219.952H291.987L323.811 316H293.715L290.835 307.36H268.515L265.635 316H235.682ZM275.715 286.192H283.923L279.747 273.808L275.715 286.192ZM252.819 304.48H256.562L259.011 297.28H300.339L302.787 304.48H306.675L282.483 231.472H277.011L252.819 304.48ZM260.019 293.824L279.747 234.928L299.187 293.824H260.019ZM326.009 316V219.952H351.497L370.505 251.344V219.952H400.601V316H374.969L356.105 285.184V316H326.009ZM339.401 304.48H343.145V238.384L383.465 304.48H387.209V231.472H383.465V297.568L343.145 231.472H339.401V304.48ZM430.105 316H410.665V219.952H430.105C448.153 219.952 462.121 224.128 472.009 232.48C481.993 240.736 486.985 252.544 486.985 267.904C486.985 283.168 481.993 295.024 472.009 303.472C462.121 311.824 448.153 316 430.105 316ZM430.105 301.024H428.809V234.928H430.105C442.393 234.928 451.897 237.76 458.617 243.424C465.337 248.992 468.697 257.152 468.697 267.904C468.697 278.656 465.289 286.864 458.473 292.528C451.753 298.192 442.297 301.024 430.105 301.024ZM425.065 231.472V304.48H430.105C443.929 304.48 454.441 301.312 461.641 294.976C468.937 288.64 472.585 279.616 472.585 267.904C472.585 256.192 468.937 247.216 461.641 240.976C454.441 234.64 443.929 231.472 430.105 231.472H425.065ZM441.337 247.312V288.64H441.913C446.233 288.64 449.785 286.864 452.569 283.312C455.353 279.664 456.745 274.528 456.745 267.904C456.745 261.664 455.209 256.672 452.137 252.928C449.161 249.184 445.753 247.312 441.913 247.312H441.337ZM494.899 316V219.952H526.867V290.8H546.163V316H494.899ZM509.299 304.48H538.099V301.024H513.043V231.472H509.299V304.48Z" fill="#198D0E" fill-opacity="0.8"/>
<path d="M366.832 441.472C370.96 442.432 374.944 442.912 378.784 442.912C384.16 442.912 388.672 441.472 392.32 438.592C396.064 435.616 397.936 431.104 397.936 425.056C397.936 421.984 397.024 418.912 395.2 415.84C393.472 412.672 391.36 409.792 388.864 407.2C386.368 404.608 383.824 402.064 381.232 399.568C378.736 397.072 376.576 394.432 374.752 391.648C373.024 388.864 372.16 386.224 372.16 383.728C372.16 376.528 376.336 372.928 384.688 372.928L390.88 373.36V369.616C388.864 369.328 386.752 369.184 384.544 369.184C379.744 369.184 375.856 370.432 372.88 372.928C369.904 375.328 368.416 378.928 368.416 383.728C368.416 386.704 369.28 389.68 371.008 392.656C372.832 395.632 374.992 398.416 377.488 401.008C380.08 403.504 382.624 406 385.12 408.496C387.712 410.992 389.872 413.68 391.6 416.56C393.424 419.44 394.336 422.272 394.336 425.056C394.336 429.568 392.944 433.072 390.16 435.568C387.376 437.968 383.488 439.168 378.496 439.168C376.864 439.168 375.04 439.072 373.024 438.88C371.104 438.592 369.568 438.352 368.416 438.16L366.832 437.728V441.472ZM354.736 452.704V423.76C361.168 426.16 367.264 427.36 373.024 427.36C376.96 427.36 378.928 425.728 378.928 422.464C378.928 421.12 378.064 419.632 376.336 418C374.704 416.272 372.64 414.4 370.144 412.384C367.744 410.272 365.296 407.968 362.8 405.472C360.4 402.88 358.336 399.664 356.608 395.824C354.976 391.984 354.16 387.808 354.16 383.296C354.16 374.656 357.04 367.888 362.8 362.992C368.656 358.096 375.808 355.648 384.256 355.648C386.944 355.648 389.824 355.84 392.896 356.224C395.968 356.512 398.368 356.848 400.096 357.232L402.832 357.664V384.592C400.528 384.016 398.176 383.728 395.776 383.728C391.264 383.728 389.008 384.88 389.008 387.184C389.008 388.048 389.776 389.248 391.312 390.784C392.944 392.224 394.912 394 397.216 396.112C399.52 398.224 401.776 400.624 403.984 403.312C406.288 406 408.208 409.36 409.744 413.392C411.376 417.328 412.192 421.552 412.192 426.064C412.192 434.896 409.36 442.192 403.696 447.952C398.032 453.616 389.92 456.448 379.36 456.448C375.52 456.448 371.536 456.112 367.408 455.44C363.28 454.864 360.16 454.288 358.048 453.712L354.736 452.704ZM418.634 454V357.952H444.266L465.434 392.656L486.458 357.952H512.09V454H481.418V421.888L465.434 448.24L449.306 421.888V454H418.634ZM433.034 442.48H436.778V376.384L465.434 423.328L493.946 376.384V442.48H497.69V369.472H493.802L465.434 416.128L437.21 369.472H433.034V442.48Z" fill="#86160E" fill-opacity="0.8"/>
<path d="M767.184 420.592H771.792C775.536 420.592 779.184 420.208 782.736 419.44L796.416 442.48H800.88L786.48 418.288C797.808 414.256 803.472 406.528 803.472 395.104C803.472 386.944 800.496 380.656 794.544 376.24C788.688 371.728 781.104 369.472 771.792 369.472H763.44V442.48H767.184V420.592ZM771.792 417.136H767.184V372.928H771.792C780.528 372.928 787.344 374.896 792.24 378.832C797.232 382.672 799.728 388.096 799.728 395.104C799.728 402.112 797.232 407.536 792.24 411.376C787.344 415.216 780.528 417.136 771.792 417.136ZM749.04 454V357.952H774.96C787.632 357.952 797.952 361.264 805.92 367.888C813.888 374.416 817.872 383.584 817.872 395.392C817.872 398.944 817.392 402.304 816.432 405.472C815.568 408.64 814.512 411.232 813.264 413.248C812.016 415.168 810.768 416.848 809.52 418.288C808.272 419.728 807.168 420.784 806.208 421.456L804.912 422.32L822.912 454H789.072L779.712 438.304V454H749.04ZM779.712 384.736V404.464H780C780.672 404.464 781.488 404.224 782.448 403.744C783.504 403.168 784.56 402.064 785.616 400.432C786.672 398.8 787.2 396.832 787.2 394.528C787.2 391.168 786.336 388.72 784.608 387.184C782.88 385.552 781.344 384.736 780 384.736H779.712ZM833.487 454V383.152H819.375V357.952H879.279V383.152H865.167V454H833.487ZM847.455 442.48H851.199V372.928H868.191V369.472H830.463V372.928H847.455V442.48Z" fill="#83190E" fill-opacity="0.8"/>
<path d="M520 454L597.35 220.55H656.85L734.2 454H661.05L654.05 433H599.8L592.8 454H520ZM617.3 381.55H637.25L627.1 351.45L617.3 381.55ZM561.65 426H570.75L576.7 408.5H677.15L683.1 426H692.55L633.75 248.55H620.45L561.65 426ZM579.15 400.1L627.1 256.95L674.35 400.1H579.15Z" fill="url(#paint0_linear_224_43)" fill-opacity="0.8"/>
<defs>
<filter id="filter0_d_224_43" x="0" y="0" width="1047" height="642" filterUnits="userSpaceOnUse" color-interpolation-filters="sRGB">
<feFlood flood-opacity="0" result="BackgroundImageFix"/>
<feColorMatrix in="SourceAlpha" type="matrix" values="0 0 0 0 0 0 0 0 0 0 0 0 0 0 0 0 0 0 127 0" result="hardAlpha"/>
<feOffset dx="5" dy="5"/>
<feGaussianBlur stdDeviation="3"/>
<feComposite in2="hardAlpha" operator="out"/>
<feColorMatrix type="matrix" values="0 0 0 0 0 0 0 0 0 0 0 0 0 0 0 0 0 0 0.5 0"/>
<feBlend mode="normal" in2="BackgroundImageFix" result="effect1_dropShadow_224_43"/>
<feBlend mode="normal" in="SourceGraphic" in2="effect1_dropShadow_224_43" result="shape"/>
</filter>
<linearGradient id="paint0_linear_224_43" x1="572" y1="259.5" x2="572" y2="367" gradientUnits="userSpaceOnUse">
<stop stop-color="#198D0E"/>
<stop offset="0.183133" stop-color="#2E760E"/>
<stop offset="0.348005" stop-color="#3E640E"/>
<stop offset="0.498943" stop-color="#534E0E"/>
<stop offset="0.716964" stop-color="#6C320E"/>
<stop offset="1" stop-color="#8D0E0E"/>
</linearGradient>
</defs>
</svg>
